<?xml version="1.0" standalone="no"?>
<!DOCTYPE svg PUBLIC "-//W3C//DTD SVG 20010904//EN"
 "http://www.w3.org/TR/2001/REC-SVG-20010904/DTD/svg10.dtd">
<svg version="1.0" xmlns="http://www.w3.org/2000/svg"
 width="100.000000pt" height="100.000000pt" viewBox="0 0 100.000000 100.000000"
 preserveAspectRatio="xMidYMid meet">
<metadata>
Created by potrace 1.11, written by Peter Selinger 2001-2013
</metadata>
<g transform="translate(0.000000,100.000000) scale(0.100000,-0.100000)"
fill="#000000" stroke="none">
<path d="M283 901 c-13 -13 -23 -28 -23 -32 0 -4 -15 -34 -34 -66 -18 -32 -49
-87 -68 -123 -37 -68 -67 -123 -125 -228 -42 -76 -36 -91 35 -86 26 2 52 6 59
8 6 3 57 88 113 190 56 103 106 188 110 191 8 5 37 -46 168 -295 30 -58 60
-108 65 -112 6 -3 35 -5 66 -4 62 3 50 -10 132 143 23 43 54 101 69 128 126
231 150 280 146 292 -4 11 -21 13 -67 11 l-62 -3 -107 -198 c-59 -108 -109
-200 -112 -203 -5 -4 -76 123 -206 369 l-25 47 -56 -2 c-44 -2 -61 -8 -78 -27z"/>
<path d="M340 280 c-14 -3 -31 -18 -38 -33 -17 -35 1 -64 48 -77 55 -16 64
-24 51 -49 -15 -28 -27 -27 -47 5 -11 16 -24 24 -37 22 -28 -4 -31 -21 -9 -48
36 -44 146 -33 158 16 10 41 -5 63 -56 81 -27 10 -52 23 -55 31 -8 22 25 26
48 5 12 -11 29 -19 37 -19 17 1 24 25 11 45 -11 16 -77 29 -111 21z"/>
<path d="M489 280 c-30 -7 -36 -30 -10 -31 12 -1 27 -2 34 -3 8 -1 12 -24 13
-79 0 -83 10 -103 43 -92 19 6 21 14 21 91 0 62 3 84 13 83 30 -4 47 2 47 16
0 9 -9 15 -22 16 -13 0 -44 1 -70 2 -26 1 -57 0 -69 -3z"/>
<path d="M697 277 c-8 -7 -29 -50 -46 -97 -29 -79 -30 -86 -14 -98 22 -16 35
-11 50 19 18 36 59 35 78 -1 14 -28 28 -32 53 -17 6 5 16 5 22 2 9 -5 75 -8
138 -6 12 1 22 7 22 16 0 14 -22 19 -77 17 -25 -1 -26 2 -25 100 1 47 -2 60
-18 68 -39 21 -47 5 -46 -90 1 -48 -2 -86 -5 -84 -3 2 -21 42 -38 89 -18 47
-36 85 -39 86 -4 0 -15 2 -24 4 -9 2 -23 -2 -31 -8z m43 -109 c0 -5 -7 -8 -15
-8 -17 0 -18 2 -9 25 5 13 8 14 15 3 5 -7 9 -16 9 -20z"/>
<path d="M7 273 c-3 -7 -3 -154 2 -191 0 -8 11 -12 29 -10 l27 3 0 100 0 100
-27 3 c-14 2 -28 0 -31 -5z"/>
<path d="M94 267 c-3 -8 -4 -54 -2 -103 3 -88 3 -89 28 -89 23 0 25 5 30 49
l5 50 32 -53 c29 -45 37 -52 60 -49 28 3 28 3 30 88 2 106 -2 120 -33 120 -25
0 -28 -8 -25 -67 1 -18 0 -33 -3 -33 -2 0 -18 23 -35 50 -24 39 -37 50 -56 50
-14 0 -28 -6 -31 -13z"/>
</g>
</svg>
